<svg width="1012" height="80" viewBox="0 0 1012 80" fill="none" xmlns="http://www.w3.org/2000/svg">
<rect width="1012" height="80" rx="5" fill="#096BEF"/>
<line x1="507.5" y1="-2.18557e-08" x2="507.5" y2="80" stroke="white"/>
<line x1="676.5" y1="-2.18557e-08" x2="676.5" y2="80" stroke="white"/>
<line x1="845.5" y1="-2.18557e-08" x2="845.5" y2="80" stroke="white"/>
<ellipse cx="699.922" cy="66.2404" rx="0.925782" ry="0.922353" transform="rotate(-90 699.922 66.2404)" fill="white"/>
<ellipse cx="699.922" cy="52.6621" rx="0.925782" ry="0.922353" transform="rotate(-90 699.922 52.6621)" fill="white"/>
<ellipse cx="699.922" cy="39.0835" rx="0.925782" ry="0.922353" transform="rotate(-90 699.922 39.0835)" fill="white"/>
<ellipse cx="699.922" cy="25.5048" rx="0.925782" ry="0.922353" transform="rotate(-90 699.922 25.5048)" fill="white"/>
<ellipse cx="699.922" cy="11.9258" rx="0.925782" ry="0.922353" transform="rotate(-90 699.922 11.9258)" fill="white"/>
<ellipse cx="713.45" cy="66.2407" rx="0.925782" ry="0.922353" transform="rotate(-90 713.45 66.2407)" fill="white"/>
<ellipse cx="713.45" cy="52.6621" rx="0.925782" ry="0.922353" transform="rotate(-90 713.45 52.6621)" fill="white"/>
<ellipse cx="713.45" cy="39.0835" rx="0.925782" ry="0.922353" transform="rotate(-90 713.45 39.0835)" fill="white"/>
<ellipse cx="713.45" cy="25.5048" rx="0.925782" ry="0.922353" transform="rotate(-90 713.45 25.5048)" fill="white"/>
<ellipse cx="713.45" cy="11.9258" rx="0.925782" ry="0.922353" transform="rotate(-90 713.45 11.9258)" fill="white"/>
<ellipse cx="726.978" cy="66.2407" rx="0.925782" ry="0.922353" transform="rotate(-90 726.978 66.2407)" fill="white"/>
<ellipse cx="726.978" cy="52.6621" rx="0.925782" ry="0.922353" transform="rotate(-90 726.978 52.6621)" fill="white"/>
<ellipse cx="726.978" cy="39.0835" rx="0.925782" ry="0.922353" transform="rotate(-90 726.978 39.0835)" fill="white"/>
<ellipse cx="726.978" cy="25.5048" rx="0.925782" ry="0.922353" transform="rotate(-90 726.978 25.5048)" fill="white"/>
<ellipse cx="726.978" cy="11.9258" rx="0.925782" ry="0.922353" transform="rotate(-90 726.978 11.9258)" fill="white"/>
<ellipse cx="740.506" cy="66.2407" rx="0.925782" ry="0.922353" transform="rotate(-90 740.506 66.2407)" fill="white"/>
<ellipse cx="740.506" cy="52.6621" rx="0.925782" ry="0.922353" transform="rotate(-90 740.506 52.6621)" fill="white"/>
<ellipse cx="740.506" cy="39.0835" rx="0.925782" ry="0.922353" transform="rotate(-90 740.506 39.0835)" fill="white"/>
<ellipse cx="740.506" cy="25.5048" rx="0.925782" ry="0.922353" transform="rotate(-90 740.506 25.5048)" fill="white"/>
<ellipse cx="740.506" cy="11.9258" rx="0.925782" ry="0.922353" transform="rotate(-90 740.506 11.9258)" fill="white"/>
<ellipse cx="754.034" cy="66.2407" rx="0.925782" ry="0.922353" transform="rotate(-90 754.034 66.2407)" fill="white"/>
<ellipse cx="754.034" cy="52.6621" rx="0.925782" ry="0.922353" transform="rotate(-90 754.034 52.6621)" fill="white"/>
<ellipse cx="754.034" cy="39.0835" rx="0.925782" ry="0.922353" transform="rotate(-90 754.034 39.0835)" fill="white"/>
<ellipse cx="754.034" cy="25.5048" rx="0.925782" ry="0.922353" transform="rotate(-90 754.034 25.5048)" fill="white"/>
<ellipse cx="754.034" cy="11.9258" rx="0.925782" ry="0.922353" transform="rotate(-90 754.034 11.9258)" fill="white"/>
<ellipse cx="767.562" cy="66.2407" rx="0.925782" ry="0.922353" transform="rotate(-90 767.562 66.2407)" fill="white"/>
<ellipse cx="767.562" cy="52.6621" rx="0.925782" ry="0.922353" transform="rotate(-90 767.562 52.6621)" fill="white"/>
<ellipse cx="767.562" cy="39.0835" rx="0.925782" ry="0.922353" transform="rotate(-90 767.562 39.0835)" fill="white"/>
<ellipse cx="767.562" cy="25.5048" rx="0.925782" ry="0.922353" transform="rotate(-90 767.562 25.5048)" fill="white"/>
<ellipse cx="767.562" cy="11.9258" rx="0.925782" ry="0.922353" transform="rotate(-90 767.562 11.9258)" fill="white"/>
<ellipse cx="781.089" cy="66.2407" rx="0.925782" ry="0.922353" transform="rotate(-90 781.089 66.2407)" fill="white"/>
<ellipse cx="781.089" cy="52.6621" rx="0.925782" ry="0.922353" transform="rotate(-90 781.089 52.6621)" fill="white"/>
<ellipse cx="781.089" cy="39.0835" rx="0.925782" ry="0.922353" transform="rotate(-90 781.089 39.0835)" fill="white"/>
<ellipse cx="781.089" cy="25.5048" rx="0.925782" ry="0.922353" transform="rotate(-90 781.089 25.5048)" fill="white"/>
<ellipse cx="781.089" cy="11.9258" rx="0.925782" ry="0.922353" transform="rotate(-90 781.089 11.9258)" fill="white"/>
<ellipse cx="794.617" cy="66.2407" rx="0.925782" ry="0.922353" transform="rotate(-90 794.617 66.2407)" fill="white"/>
<ellipse cx="794.617" cy="52.6621" rx="0.925782" ry="0.922353" transform="rotate(-90 794.617 52.6621)" fill="white"/>
<ellipse cx="794.617" cy="39.0835" rx="0.925782" ry="0.922353" transform="rotate(-90 794.617 39.0835)" fill="white"/>
<ellipse cx="794.617" cy="25.5048" rx="0.925782" ry="0.922353" transform="rotate(-90 794.617 25.5048)" fill="white"/>
<ellipse cx="794.617" cy="11.9258" rx="0.925782" ry="0.922353" transform="rotate(-90 794.617 11.9258)" fill="white"/>
<ellipse cx="808.145" cy="66.2407" rx="0.925782" ry="0.922353" transform="rotate(-90 808.145 66.2407)" fill="white"/>
<ellipse cx="808.145" cy="52.6621" rx="0.925782" ry="0.922353" transform="rotate(-90 808.145 52.6621)" fill="white"/>
<ellipse cx="808.145" cy="39.0835" rx="0.925782" ry="0.922353" transform="rotate(-90 808.145 39.0835)" fill="white"/>
<ellipse cx="808.145" cy="25.5048" rx="0.925782" ry="0.922353" transform="rotate(-90 808.145 25.5048)" fill="white"/>
<ellipse cx="808.145" cy="11.9258" rx="0.925782" ry="0.922353" transform="rotate(-90 808.145 11.9258)" fill="white"/>
<ellipse cx="821.673" cy="66.2407" rx="0.925782" ry="0.922353" transform="rotate(-90 821.673 66.2407)" fill="white"/>
<ellipse cx="821.673" cy="52.6621" rx="0.925782" ry="0.922353" transform="rotate(-90 821.673 52.6621)" fill="white"/>
<ellipse cx="821.673" cy="39.0835" rx="0.925782" ry="0.922353" transform="rotate(-90 821.673 39.0835)" fill="white"/>
<ellipse cx="821.673" cy="25.5048" rx="0.925782" ry="0.922353" transform="rotate(-90 821.673 25.5048)" fill="white"/>
<ellipse cx="821.673" cy="11.9258" rx="0.925782" ry="0.922353" transform="rotate(-90 821.673 11.9258)" fill="white"/>
</svg>
