<svg width="28" height="28" viewBox="0 0 28 28" fill="none" xmlns="http://www.w3.org/2000/svg">
<rect width="28" height="28" rx="5" fill="#2D394F"/>
<path d="M13.0312 14.5H6.46875C6.20972 14.5 6 14.7097 6 14.9688C6 18.8459 9.15405 22 13.0312 22C13.2903 22 13.5 21.7903 13.5 21.5312V14.9688C13.5 14.7097 13.2903 14.5 13.0312 14.5Z" fill="white"/>
<path d="M8.40625 13.5H13.525L11.7063 6.81567C9.46558 7.97815 7.9375 10.3313 7.9375 13.0312C7.9375 13.2937 8.14368 13.5 8.40625 13.5Z" fill="white"/>
<path d="M14.9684 6C14.1246 6 13.3184 6.15002 12.5684 6.43127L14.4902 13.5L14.4996 13.5187C14.5184 13.5938 14.5184 13.6687 14.4996 13.7438V19.5938C14.4996 19.8562 14.7058 20.0625 14.9684 20.0625C18.8496 20.0625 21.9996 16.9125 21.9996 13.0312C21.9996 9.15002 18.8496 6 14.9684 6V6ZM18.2496 15.2887V15.8063C18.2496 16.0653 18.0399 16.275 17.7809 16.275C17.5219 16.275 17.3121 16.0653 17.3121 15.8063V15.2834C17.0028 15.1726 16.7319 14.9644 16.5632 14.6724C16.4332 14.448 16.5101 14.1615 16.734 14.032C16.9587 13.9005 17.2452 13.9779 17.3744 14.2026C17.4581 14.3478 17.6138 14.4375 17.7809 14.4375C18.0396 14.4375 18.2496 14.2274 18.2496 13.9688C18.2496 13.7101 18.0396 13.5 17.7809 13.5C17.0055 13.5 16.3746 12.8691 16.3746 12.0938C16.3746 11.4834 16.7677 10.968 17.3121 10.7738V10.2375C17.3121 9.97839 17.5219 9.7688 17.7809 9.7688C18.0399 9.7688 18.2496 9.97839 18.2496 10.2375V10.7791C18.559 10.8898 18.8298 11.0981 18.9985 11.3901C19.1285 11.6145 19.0516 11.901 18.8278 12.0305C18.6021 12.1602 18.3165 12.0833 18.1874 11.8599C18.1036 11.7147 17.948 11.625 17.7809 11.625C17.5222 11.625 17.3121 11.8351 17.3121 12.0938C17.3121 12.3524 17.5222 12.5625 17.7809 12.5625C18.5563 12.5625 19.1871 13.1934 19.1871 13.9688C19.1871 14.5791 18.7941 15.0945 18.2496 15.2887V15.2887Z" fill="white"/>
</svg>
