<svg width="28" height="28" viewBox="0 0 28 28" fill="none" xmlns="http://www.w3.org/2000/svg">
<rect width="28" height="28" rx="5" fill="#2D394F"/>
<path d="M20.3351 19.1941L19.6207 10.1907C19.5764 9.61059 19.0856 9.15637 18.5039 9.15637H17.0925V11.2475C17.0925 11.5065 16.8829 11.7161 16.6239 11.7161C16.3653 11.7161 16.1554 11.5065 16.1554 11.2475V9.15637H11.8444V11.2475C11.8444 11.5065 11.6344 11.7161 11.3758 11.7161C11.1168 11.7161 10.9072 11.5065 10.9072 11.2475V9.15637H9.49582C8.91416 9.15637 8.42338 9.61059 8.37904 10.1894L7.66429 19.1953C7.60901 19.9167 7.85923 20.6345 8.3506 21.165C8.84201 21.6954 9.53863 22 10.2618 22H17.7379C18.4611 22 19.1578 21.6954 19.6492 21.1649C20.1405 20.6345 20.3908 19.9166 20.3351 19.1941ZM16.111 14.6091L13.6875 17.0327C13.5959 17.1242 13.476 17.1701 13.356 17.1701C13.2361 17.1701 13.1161 17.1242 13.0246 17.0327L11.8888 15.8968C11.7057 15.7137 11.7057 15.4173 11.8888 15.2342C12.0718 15.0512 12.3686 15.0512 12.5514 15.2342L13.3561 16.0386L15.4484 13.9462C15.6312 13.7635 15.928 13.7635 16.111 13.9462C16.2941 14.1293 16.2941 14.4261 16.111 14.6091Z" fill="white"/>
<path d="M14.0004 6C12.295 6 10.9077 7.38762 10.9077 9.09297V9.15637H11.8449V9.09297C11.8449 7.90431 12.8117 6.93716 14.0004 6.93716C15.1891 6.93716 16.1559 7.90431 16.1559 9.09297V9.15637H17.0931V9.09297C17.093 7.38762 15.7057 6 14.0004 6Z" fill="white"/>
</svg>
