<svg width="12" height="12" viewBox="0 0 12 12" fill="none" xmlns="http://www.w3.org/2000/svg">
<path d="M10.7515 9.89557L10.2157 3.14301C10.1824 2.70794 9.81436 2.36728 9.37812 2.36728H8.31959V3.93565C8.31959 4.12987 8.16237 4.28709 7.96814 4.28709C7.77415 4.28709 7.6167 4.12987 7.6167 3.93565V2.36728H4.38347V3.93565C4.38347 4.12987 4.22602 4.28709 4.03203 4.28709C3.8378 4.28709 3.68058 4.12987 3.68058 3.93565V2.36728H2.62205C2.18581 2.36728 1.81772 2.70794 1.78446 3.14208L1.2484 9.8965C1.20694 10.4375 1.3946 10.9759 1.76313 11.3737C2.13169 11.7715 2.65416 12 3.19655 12H8.80364C9.34603 12 9.8685 11.7715 10.2371 11.3737C10.6056 10.9759 10.7933 10.4375 10.7515 9.89557ZM7.58344 6.45684L5.76579 8.27449C5.69714 8.34314 5.60717 8.37757 5.51721 8.37757C5.42724 8.37757 5.33728 8.34314 5.26863 8.27449L4.41675 7.42261C4.27945 7.28531 4.27945 7.06296 4.41675 6.92566C4.55405 6.78836 4.77663 6.78836 4.9137 6.92566L5.51724 7.52897L7.08652 5.95968C7.22358 5.82262 7.44617 5.82262 7.58346 5.95968C7.72074 6.09698 7.72074 6.31954 7.58344 6.45684Z" fill="#787878"/>
<path d="M6.00009 0C4.72109 0 3.6806 1.04072 3.6806 2.31973V2.36728H4.38349V2.31973C4.38349 1.42823 5.10863 0.702867 6.00012 0.702867C6.89161 0.702867 7.61674 1.42823 7.61674 2.31973V2.36728H8.31961V2.31973C8.31959 1.04072 7.2791 0 6.00009 0Z" fill="#787878"/>
</svg>
