<svg width="13" height="11" viewBox="0 0 13 11" fill="none" xmlns="http://www.w3.org/2000/svg">
<path fill-rule="evenodd" clip-rule="evenodd" d="M11 2.06818C12.1046 2.06818 13 2.96361 13 4.06818L13 4.43177H10.6364C9.65731 4.43177 8.86364 5.22545 8.86364 6.2045C8.86364 7.18355 9.65731 7.97723 10.6364 7.97723H13L13 8.34091C13 9.44548 12.1046 10.3409 11 10.3409H2C0.89543 10.3409 0 9.44548 0 8.34091V2C0 0.895431 0.895432 0 2 0H9.45455C10.1072 0 10.6364 0.529118 10.6364 1.18182H1.92045C1.67569 1.18182 1.47727 1.38024 1.47727 1.625C1.47727 1.86976 1.67569 2.06818 1.92045 2.06818H11ZM10.6364 5.31818C10.1468 5.31818 9.75 5.71502 9.75 6.20455C9.75 6.69407 10.1468 7.09091 10.6364 7.09091H13V5.31818H10.6364Z" fill="#787878"/>
</svg>
